<svg width="219" height="29" viewBox="0 0 219 29" fill="none" xmlns="http://www.w3.org/2000/svg">
<path d="M23.604 28H15.684L5.316 9.172H5.172C5.22 10.204 5.268 11.356 5.316 12.628C5.388 13.876 5.448 15.04 5.496 16.12V28H0.0240002V2.296H7.908L18.24 20.908H18.348C18.3 19.876 18.252 18.772 18.204 17.596C18.156 16.396 18.12 15.268 18.096 14.212V2.296H23.604V28ZM47.6247 18.064C47.6247 21.376 46.7487 23.92 44.9967 25.696C43.2687 27.472 40.8927 28.36 37.8687 28.36C35.9967 28.36 34.3287 27.964 32.8647 27.172C31.4247 26.356 30.2847 25.192 29.4447 23.68C28.6287 22.144 28.2207 20.272 28.2207 18.064C28.2207 14.8 29.0847 12.292 30.8127 10.54C32.5647 8.764 34.9527 7.876 37.9767 7.876C39.8487 7.876 41.5047 8.272 42.9447 9.064C44.4087 9.856 45.5487 11.008 46.3647 12.52C47.2047 14.032 47.6247 15.88 47.6247 18.064ZM34.3767 18.064C34.3767 19.912 34.6527 21.316 35.2047 22.276C35.7567 23.212 36.6687 23.68 37.9407 23.68C39.1887 23.68 40.0887 23.212 40.6407 22.276C41.1927 21.316 41.4687 19.912 41.4687 18.064C41.4687 16.24 41.1927 14.872 40.6407 13.96C40.0887 13.024 39.1767 12.556 37.9047 12.556C36.6567 12.556 35.7567 13.024 35.2047 13.96C34.6527 14.872 34.3767 16.24 34.3767 18.064ZM66.019 22.024C66.019 23.968 65.335 25.516 63.967 26.668C62.623 27.796 60.511 28.36 57.631 28.36C56.239 28.36 55.015 28.276 53.959 28.108C52.927 27.94 51.883 27.64 50.827 27.208V22.312C51.979 22.84 53.179 23.248 54.427 23.536C55.675 23.8 56.731 23.932 57.595 23.932C58.507 23.932 59.167 23.812 59.575 23.572C59.983 23.332 60.187 22.996 60.187 22.564C60.187 22.252 60.079 21.976 59.863 21.736C59.671 21.496 59.263 21.232 58.639 20.944C58.039 20.632 57.139 20.224 55.939 19.72C54.763 19.216 53.791 18.7 53.023 18.172C52.279 17.644 51.715 17.02 51.331 16.3C50.971 15.556 50.791 14.632 50.791 13.528C50.791 11.656 51.511 10.252 52.951 9.316C54.415 8.356 56.347 7.876 58.747 7.876C60.019 7.876 61.219 8.008 62.347 8.272C63.475 8.536 64.639 8.944 65.839 9.496L64.111 13.6C63.127 13.168 62.167 12.82 61.231 12.556C60.319 12.292 59.491 12.16 58.747 12.16C57.355 12.16 56.659 12.52 56.659 13.24C56.659 13.504 56.755 13.756 56.947 13.996C57.163 14.212 57.559 14.452 58.135 14.716C58.735 14.98 59.599 15.352 60.727 15.832C61.855 16.288 62.815 16.78 63.607 17.308C64.399 17.812 64.999 18.436 65.407 19.18C65.815 19.924 66.019 20.872 66.019 22.024ZM84.23 22.024C84.23 23.968 83.546 25.516 82.178 26.668C80.834 27.796 78.722 28.36 75.842 28.36C74.45 28.36 73.226 28.276 72.17 28.108C71.138 27.94 70.094 27.64 69.038 27.208V22.312C70.19 22.84 71.39 23.248 72.638 23.536C73.886 23.8 74.942 23.932 75.806 23.932C76.718 23.932 77.378 23.812 77.786 23.572C78.194 23.332 78.398 22.996 78.398 22.564C78.398 22.252 78.29 21.976 78.074 21.736C77.882 21.496 77.474 21.232 76.85 20.944C76.25 20.632 75.35 20.224 74.15 19.72C72.974 19.216 72.002 18.7 71.234 18.172C70.49 17.644 69.926 17.02 69.542 16.3C69.182 15.556 69.002 14.632 69.002 13.528C69.002 11.656 69.722 10.252 71.162 9.316C72.626 8.356 74.558 7.876 76.958 7.876C78.23 7.876 79.43 8.008 80.558 8.272C81.686 8.536 82.85 8.944 84.05 9.496L82.322 13.6C81.338 13.168 80.378 12.82 79.442 12.556C78.53 12.292 77.702 12.16 76.958 12.16C75.566 12.16 74.87 12.52 74.87 13.24C74.87 13.504 74.966 13.756 75.158 13.996C75.374 14.212 75.77 14.452 76.346 14.716C76.946 14.98 77.81 15.352 78.938 15.832C80.066 16.288 81.026 16.78 81.818 17.308C82.61 17.812 83.21 18.436 83.618 19.18C84.026 19.924 84.23 20.872 84.23 22.024ZM106.617 18.064C106.617 21.376 105.741 23.92 103.989 25.696C102.261 27.472 99.8849 28.36 96.8609 28.36C94.9889 28.36 93.3209 27.964 91.8569 27.172C90.4169 26.356 89.2769 25.192 88.4369 23.68C87.6209 22.144 87.2129 20.272 87.2129 18.064C87.2129 14.8 88.0769 12.292 89.8049 10.54C91.5569 8.764 93.9449 7.876 96.9689 7.876C98.8409 7.876 100.497 8.272 101.937 9.064C103.401 9.856 104.541 11.008 105.357 12.52C106.197 14.032 106.617 15.88 106.617 18.064ZM93.3689 18.064C93.3689 19.912 93.6449 21.316 94.1969 22.276C94.7489 23.212 95.6609 23.68 96.9329 23.68C98.1809 23.68 99.0809 23.212 99.6329 22.276C100.185 21.316 100.461 19.912 100.461 18.064C100.461 16.24 100.185 14.872 99.6329 13.96C99.0809 13.024 98.1689 12.556 96.8969 12.556C95.6489 12.556 94.7489 13.024 94.1969 13.96C93.6449 14.872 93.3689 16.24 93.3689 18.064Z" fill="black"/>
<path d="M128.999 2.296C132.575 2.296 135.203 2.812 136.883 3.844C138.563 4.876 139.403 6.52 139.403 8.776C139.403 10.336 139.007 11.608 138.215 12.592C137.447 13.552 136.511 14.14 135.407 14.356V14.536C136.175 14.704 136.907 15.004 137.603 15.436C138.299 15.844 138.863 16.456 139.295 17.272C139.751 18.088 139.979 19.168 139.979 20.512C139.979 22.864 139.115 24.7 137.387 26.02C135.683 27.34 133.343 28 130.367 28H120.575V2.296H128.999ZM129.395 12.34C130.763 12.34 131.723 12.1 132.275 11.62C132.827 11.116 133.103 10.444 133.103 9.604C133.103 7.948 131.783 7.12 129.143 7.12H126.695V12.34H129.395ZM126.695 17.02V23.104H129.755C131.195 23.104 132.191 22.816 132.743 22.24C133.319 21.664 133.607 20.908 133.607 19.972C133.607 19.132 133.319 18.436 132.743 17.884C132.167 17.308 131.123 17.02 129.611 17.02H126.695ZM197.257 22.024C197.257 23.968 196.573 25.516 195.205 26.668C193.861 27.796 191.749 28.36 188.869 28.36C187.477 28.36 186.253 28.276 185.197 28.108C184.165 27.94 183.121 27.64 182.065 27.208V22.312C183.217 22.84 184.417 23.248 185.665 23.536C186.913 23.8 187.969 23.932 188.833 23.932C189.745 23.932 190.405 23.812 190.813 23.572C191.221 23.332 191.425 22.996 191.425 22.564C191.425 22.252 191.317 21.976 191.101 21.736C190.909 21.496 190.501 21.232 189.877 20.944C189.277 20.632 188.377 20.224 187.177 19.72C186.001 19.216 185.029 18.7 184.261 18.172C183.517 17.644 182.953 17.02 182.569 16.3C182.209 15.556 182.029 14.632 182.029 13.528C182.029 11.656 182.749 10.252 184.189 9.316C185.653 8.356 187.585 7.876 189.985 7.876C191.257 7.876 192.457 8.008 193.585 8.272C194.713 8.536 195.877 8.944 197.077 9.496L195.349 13.6C194.365 13.168 193.405 12.82 192.469 12.556C191.557 12.292 190.729 12.16 189.985 12.16C188.593 12.16 187.897 12.52 187.897 13.24C187.897 13.504 187.993 13.756 188.185 13.996C188.401 14.212 188.797 14.452 189.373 14.716C189.973 14.98 190.837 15.352 191.965 15.832C193.093 16.288 194.053 16.78 194.845 17.308C195.637 17.812 196.237 18.436 196.645 19.18C197.053 19.924 197.257 20.872 197.257 22.024Z" fill="#009C3B"/>
<path d="M155.849 7.876C156.161 7.876 156.509 7.9 156.893 7.948C157.277 7.972 157.577 8.008 157.793 8.056L157.289 13.744C157.073 13.696 156.797 13.66 156.461 13.636C156.125 13.588 155.753 13.564 155.345 13.564C154.577 13.564 153.809 13.684 153.041 13.924C152.297 14.164 151.673 14.62 151.169 15.292C150.689 15.94 150.449 16.876 150.449 18.1V28H144.365V8.236H148.937L149.873 11.476H150.125C150.701 10.492 151.493 9.652 152.501 8.956C153.509 8.236 154.625 7.876 155.849 7.876ZM204.344 0.387999C205.208 0.387999 205.964 0.579999 206.612 0.963998C207.26 1.348 207.584 2.092 207.584 3.196C207.584 4.276 207.26 5.02 206.612 5.428C205.964 5.812 205.208 6.004 204.344 6.004C203.432 6.004 202.652 5.812 202.004 5.428C201.38 5.02 201.068 4.276 201.068 3.196C201.068 2.092 201.38 1.348 202.004 0.963998C202.652 0.579999 203.432 0.387999 204.344 0.387999ZM207.332 8.236V28H201.284V8.236H207.332Z" fill="#002776"/>
<path d="M169.815 7.84C172.383 7.84 174.375 8.44 175.791 9.64C177.207 10.84 177.915 12.592 177.915 14.896V28H173.703L172.515 25.336H172.371C171.531 26.416 170.643 27.196 169.707 27.676C168.771 28.132 167.487 28.36 165.855 28.36C164.103 28.36 162.651 27.844 161.499 26.812C160.347 25.78 159.771 24.184 159.771 22.024C159.771 19.936 160.503 18.388 161.967 17.38C163.455 16.348 165.627 15.772 168.483 15.652L171.867 15.544V14.968C171.867 14.008 171.615 13.312 171.111 12.88C170.631 12.448 169.959 12.232 169.095 12.232C168.231 12.232 167.331 12.376 166.395 12.664C165.459 12.928 164.511 13.264 163.551 13.672L161.715 9.64C162.795 9.064 164.019 8.62 165.387 8.308C166.755 7.996 168.231 7.84 169.815 7.84ZM170.031 19.072C168.519 19.12 167.463 19.396 166.863 19.9C166.263 20.38 165.963 21.04 165.963 21.88C165.963 22.624 166.179 23.164 166.611 23.5C167.043 23.836 167.595 24.004 168.267 24.004C169.275 24.004 170.127 23.704 170.823 23.104C171.519 22.48 171.867 21.64 171.867 20.584V19L170.031 19.072ZM218.653 28H212.569V0.639998H218.653V28Z" fill="#FFDF00"/>
</svg>
